<svg id="Layer_1" data-name="Layer 1" xmlns="http://www.w3.org/2000/svg" viewBox="0 0 72 72"><defs><style>.cls-1,.cls-8{fill:#fff;}.cls-2{fill:#1c061c;}.cls-3{fill:#fef0d2;}.cls-4{fill:#f9ae24;}.cls-5{fill:#fbe3ba;}.cls-6{fill:#cbd4dd;}.cls-7{fill:#fc312a;}.cls-8{stroke:#353431;stroke-miterlimit:10;stroke-width:0.25px;}.cls-9{fill:#f40e00;}.cls-10{fill:#d7000d;}</style></defs><circle class="cls-1" cx="59" cy="58" r="2"/><path class="cls-2" d="M56.5,58A2.5,2.5,0,1,1,59,60.5,2.5,2.5,0,0,1,56.5,58Zm4,0A1.5,1.5,0,1,0,59,59.5,1.5,1.5,0,0,0,60.5,58Z"/><path class="cls-3" d="M62,53.5a2.35,2.35,0,0,0-.12-.71A2,2,0,1,0,59,51a.09.09,0,0,0,0,0,2.5,2.5,0,1,0,3,2.45Z"/><path class="cls-2" d="M56.5,53.5a3,3,0,0,1,2-2.84,2.5,2.5,0,0,1,5,.34,2.47,2.47,0,0,1-1,2,2.74,2.74,0,0,1,0,.48,3,3,0,0,1-6,0Zm6-2.5a1.5,1.5,0,0,0-3,0,.55.55,0,0,1-.4.54,2,2,0,1,0,2.4,2,2.15,2.15,0,0,0-.09-.57.48.48,0,0,1,.25-.59A1.49,1.49,0,0,0,62.5,51Z"/><path class="cls-4" d="M59.5,53a.54.54,0,0,1,0-.22l1-2a.5.5,0,0,1,.9.44l-1,2a.5.5,0,0,1-1-.22Z"/><path class="cls-3" d="M58.91,50H59a2,2,0,1,0-1.36-3.46A1.47,1.47,0,0,0,56.5,46a1.5,1.5,0,0,0-.39,2.94,1.47,1.47,0,0,0-.11.56A1.5,1.5,0,0,0,57.5,51,1.48,1.48,0,0,0,58.91,50Z"/><path class="cls-2" d="M54.5,47.5a2,2,0,0,1,2-2,2,2,0,0,1,1.17.39,2.5,2.5,0,1,1,1.56,4.6,2,2,0,0,1-1.73,1,2,2,0,0,1-2-2.26A2,2,0,0,1,54.5,47.5Zm6,.5A1.5,1.5,0,0,0,59,46.5a1.47,1.47,0,0,0-1,.41.5.5,0,0,1-.72,0,1,1,0,1,0-1,1.6.52.52,0,0,1,.32.26.49.49,0,0,1,0,.41,1,1,0,0,0,.93,1.37,1,1,0,0,0,.94-.67.5.5,0,0,1,.49-.34H59A1.49,1.49,0,0,0,60.5,48Z"/><path class="cls-1" d="M55.5,62a2.5,2.5,0,1,0-1.13-4.72A1.53,1.53,0,0,0,53.5,57,1.5,1.5,0,0,0,53,59.92,2.49,2.49,0,0,0,55.5,62Z"/><path class="cls-2" d="M51.5,58.5a2,2,0,0,1,2-2,1.87,1.87,0,0,1,.9.22,2.84,2.84,0,0,1,1.1-.22,3,3,0,1,1-2.89,3.78A2,2,0,0,1,51.5,58.5Zm6,1a2,2,0,0,0-2-2,2,2,0,0,0-.9.23.51.51,0,0,1-.52,0,1,1,0,1,0-.88,1.76.5.5,0,0,1,.34.39,2,2,0,0,0,4-.34Z"/><path class="cls-5" d="M53.5,46a2.5,2.5,0,1,0-1.13-4.72A1.53,1.53,0,0,0,51.5,41,1.5,1.5,0,0,0,51,43.92,2.49,2.49,0,0,0,53.5,46Z"/><path class="cls-2" d="M49.5,42.5a2,2,0,0,1,2-2,1.87,1.87,0,0,1,.9.22,2.84,2.84,0,0,1,1.1-.22,3,3,0,1,1-2.89,3.78A2,2,0,0,1,49.5,42.5Zm6,1a2,2,0,0,0-2-2,2,2,0,0,0-.9.23.51.51,0,0,1-.52,0,1,1,0,1,0-.88,1.76.5.5,0,0,1,.34.39,2,2,0,0,0,4-.34Z"/><path class="cls-3" d="M57,46.5a2.35,2.35,0,0,0-.12-.71A2,2,0,1,0,54,44a.09.09,0,0,0,0,0,2.5,2.5,0,1,0,3,2.45Z"/><path class="cls-2" d="M51.5,46.5a3,3,0,0,1,2-2.84,2.5,2.5,0,0,1,5,.34,2.47,2.47,0,0,1-1,2,2.74,2.74,0,0,1,0,.48,3,3,0,0,1-6,0Zm6-2.5a1.5,1.5,0,0,0-3,0,.55.55,0,0,1-.4.54,2,2,0,1,0,2.4,2,2.15,2.15,0,0,0-.09-.57.48.48,0,0,1,.25-.59A1.49,1.49,0,0,0,57.5,44Z"/><path class="cls-4" d="M54.5,46a.54.54,0,0,1,0-.22l1-2a.5.5,0,0,1,.9.44l-1,2a.5.5,0,0,1-1-.22Z"/><path class="cls-1" d="M56.5,57a1.5,1.5,0,0,0,.39-2.94,1.48,1.48,0,0,0,0-1.12A1.5,1.5,0,0,0,56.5,50a1.47,1.47,0,0,0-.56.11,1.49,1.49,0,0,0-2.87,0,1.49,1.49,0,0,0-.68,2.43,1.49,1.49,0,0,0,.72,2.44,1.47,1.47,0,0,0-.11.56,1.49,1.49,0,0,0,2.5,1.11A1.49,1.49,0,0,0,56.5,57Z"/><path class="cls-2" d="M51.5,53.5a2,2,0,0,1,.27-1,2,2,0,0,1-.27-1,2,2,0,0,1,1.18-1.82,2,2,0,0,1,3.56-.16l.26,0a2,2,0,0,1,1,3.74,1.51,1.51,0,0,1,0,.52,2,2,0,0,1-1,3.74,2.05,2.05,0,0,1-1-.27,2.05,2.05,0,0,1-1,.27,2,2,0,0,1-2-2.26A2,2,0,0,1,51.5,53.5Zm1.39-1a.5.5,0,0,1-.13.34,1,1,0,0,0,.48,1.62.52.52,0,0,1,.32.26.49.49,0,0,1,0,.41,1,1,0,0,0,1.6,1.11.49.49,0,0,1,.66,0,1,1,0,0,0,1.67-.74,1,1,0,0,0-.74-1,.52.52,0,0,1-.32-.26.49.49,0,0,1,0-.41,1,1,0,0,0,0-.74.49.49,0,0,1,0-.41.52.52,0,0,1,.32-.26,1,1,0,0,0-.26-2,1,1,0,0,0-.37.07.49.49,0,0,1-.41,0,.52.52,0,0,1-.26-.32,1,1,0,0,0-1.91,0,.5.5,0,0,1-.34.34,1,1,0,0,0-.45,1.61A.5.5,0,0,1,52.89,52.5Z"/><path class="cls-4" d="M53.5,52a.5.5,0,0,1,1-.22l1,2a.5.5,0,1,1-.9.44l-1-2A.54.54,0,0,1,53.5,52Z"/><polygon class="cls-1" points="8 38.8 8 32.4 48 30 48 38 8 38.8"/><polygon class="cls-1" points="8 51.6 8 45.2 48 46 48 54 8 51.6"/><path class="cls-6" d="M47,50V23.1l-1,.1h0L9,26.9v.72L43.81,24.3a2,2,0,0,1,2.19,2V46.83a3,3,0,0,1-3.13,3L9,48.39V57.1l37,3.7,1,.1Z"/><polygon class="cls-7" points="8 58 8 51.6 48 54 48 62 8 58"/><polygon class="cls-7" points="8 32.4 8 26 48 22 48 30 8 32.4"/><polygon class="cls-7" points="8 45.2 8 38.8 48 38 48 46 8 45.2"/><rect class="cls-1" x="28" y="40" width="44" height="4" rx="2" transform="translate(92 -8) rotate(90)"/><path class="cls-2" d="M50,65a3,3,0,0,0,3-3V22a3,3,0,0,0-5.84-.92L7.9,25A1,1,0,0,0,7,26V58a1,1,0,0,0,.9,1l39.26,3.92A3,3,0,0,0,50,65ZM9,57.1V26.9l38-3.8V60.9ZM49,62V22a1,1,0,0,1,2,0V62a1,1,0,0,1-2,0Z"/><circle class="cls-8" cx="29" cy="42" r="7"/><path class="cls-8" d="M21.5,42A7.5,7.5,0,1,1,29,49.5,7.5,7.5,0,0,1,21.5,42Zm14,0A6.5,6.5,0,1,0,29,48.5,6.51,6.51,0,0,0,35.5,42Z"/><polygon class="cls-9" points="9 51.66 9 57.09 46 60.8 47 60.9 47 53.94 9 51.66"/><polygon class="cls-9" points="47 45.98 47 38.02 46 38.04 46 45.96 47 45.98"/><path class="cls-9" d="M46,26.29v3.83l1-.06v-7l-1,.1L9,26.9v.72L43.81,24.3A2,2,0,0,1,46,26.29Z"/><polygon class="cls-10" points="47 59 9 56 9 57.09 47 60.9 47 59"/><path class="cls-6" d="M51,62V50H50V21a1,1,0,0,0-1,1V62a1,1,0,0,0,2,0Z"/><polygon class="cls-7" points="9 45.22 15 45.34 15 38.66 9 38.78 9 45.22"/><path class="cls-3" d="M69,61.5a2.35,2.35,0,0,0-.71.12A2,2,0,1,0,66.5,64.5h0a2.5,2.5,0,1,0,2.45-3Z"/><path class="cls-2" d="M69,67a3,3,0,0,1-2.84-2,2.5,2.5,0,0,1,.34-5,2.47,2.47,0,0,1,2,1A3,3,0,0,1,72,64,3,3,0,0,1,69,67Zm-2.5-6a1.5,1.5,0,0,0,0,3,.55.55,0,0,1,.54.4A2,2,0,1,0,69,62a2.15,2.15,0,0,0-.57.09.48.48,0,0,1-.59-.25A1.49,1.49,0,0,0,66.5,61Z"/><path class="cls-4" d="M68.5,64a.54.54,0,0,1-.22,0l-2-1a.5.5,0,0,1,.44-.9l2,1a.5.5,0,0,1-.22,1Z"/><path class="cls-1" d="M56.5,65a1.5,1.5,0,0,0,2.94.39,1.48,1.48,0,0,0,1.12,0A1.5,1.5,0,0,0,63.5,65a1.47,1.47,0,0,0-.11-.56,1.49,1.49,0,0,0,0-2.87A1.49,1.49,0,0,0,61,60.89a1.49,1.49,0,0,0-2.44.72A1.47,1.47,0,0,0,58,61.5,1.49,1.49,0,0,0,56.89,64,1.49,1.49,0,0,0,56.5,65Z"/><path class="cls-2" d="M62,67a2,2,0,0,1-1.74-1,1.51,1.51,0,0,1-.52,0A2,2,0,0,1,56,65a2.05,2.05,0,0,1,.27-1A2.05,2.05,0,0,1,56,63a2,2,0,0,1,2.26-2A2,2,0,0,1,60,60a2,2,0,0,1,1,.27A2,2,0,0,1,62,60a2,2,0,0,1,1.82,1.18A2,2,0,0,1,64,64.74,2.11,2.11,0,0,1,64,65,2,2,0,0,1,62,67Zm-1.44-2.11a.59.59,0,0,1,.22,0,.52.52,0,0,1,.26.32A1,1,0,0,0,63,65a1,1,0,0,0-.07-.37.49.49,0,0,1,0-.41.52.52,0,0,1,.32-.26,1,1,0,0,0,0-1.91.49.49,0,0,1-.34-.34,1,1,0,0,0-1.61-.45.52.52,0,0,1-.68,0,1,1,0,0,0-1.62.48.52.52,0,0,1-.26.32.49.49,0,0,1-.41,0,1,1,0,0,0-1.11,1.6.49.49,0,0,1,0,.66A1,1,0,0,0,58,66a1,1,0,0,0,1-.74.52.52,0,0,1,.26-.32.49.49,0,0,1,.41,0,1,1,0,0,0,.74,0A.41.41,0,0,1,60.56,64.89Z"/><path class="cls-4" d="M59.5,64a.5.5,0,0,1-.22-1l2-1a.5.5,0,1,1,.44.9l-2,1A.54.54,0,0,1,59.5,64Z"/><path class="cls-1" d="M67.5,57.5a2,2,0,0,0-2-2,2,2,0,0,0-1,.29,1.5,1.5,0,0,0-3,.21,1.52,1.52,0,0,0,.17.68A2,2,0,1,0,63.86,60,1.47,1.47,0,0,0,65,60.5a1.5,1.5,0,0,0,1.48-1.26A2,2,0,0,0,67.5,57.5Z"/><path class="cls-2" d="M65,61a2,2,0,0,1-1.17-.39A2.43,2.43,0,0,1,62.5,61a2.5,2.5,0,0,1-1.44-4.54A1.76,1.76,0,0,1,61,56a2,2,0,0,1,3.78-.89A2.57,2.57,0,0,1,65.5,55a2.5,2.5,0,0,1,1.42,4.55A2,2,0,0,1,65,61Zm-1.14-1.54h0a.5.5,0,0,1,.35.18A1,1,0,0,0,66,59.16a.55.55,0,0,1,.25-.36A1.49,1.49,0,0,0,65.5,56a1.4,1.4,0,0,0-.76.22.51.51,0,0,1-.76-.36A1,1,0,0,0,62,56a1,1,0,0,0,.12.45.56.56,0,0,1,0,.4.55.55,0,0,1-.27.29A1.5,1.5,0,0,0,62.5,60a1.47,1.47,0,0,0,1-.41A.51.51,0,0,1,63.86,59.46Z"/><path class="cls-4" d="M63.5,59a.47.47,0,0,1-.35-.15.48.48,0,0,1,0-.7l1-1A.47.47,0,0,1,64.5,57h1a.5.5,0,0,1,0,1h-.79l-.86.85A.47.47,0,0,1,63.5,59Z"/><path class="cls-7" d="M32.77,40.22a1.9,1.9,0,0,1-1.3-.53,1.63,1.63,0,0,0-1.15-.49H27.68a.5.5,0,1,0,0,1H27a.5.5,0,0,0,0,1H26.5a.49.49,0,0,0-.5.49.5.5,0,0,0,.5.5h.34a.5.5,0,0,0-.5.5.49.49,0,0,0,.5.49h2a.32.32,0,0,1,.31.47l-.34.81A1.18,1.18,0,0,0,29.45,46h0l.84-2a1.18,1.18,0,0,1,.28-.43h0a1.35,1.35,0,0,1,.93-.38h1.3v-3Z"/></svg>