<svg id="Layer_1" data-name="Layer 1" xmlns="http://www.w3.org/2000/svg" viewBox="0 0 72 72"><defs><style>.cls-1,.cls-9{fill:#fff;}.cls-2{fill:#1c061c;}.cls-3{fill:#fbe3ba;}.cls-4{fill:#f9ae24;}.cls-5{fill:#fef0d2;}.cls-6{fill:#cbd4dd;}.cls-7{fill:#fc312a;}.cls-8{fill:#178c36;}.cls-9{stroke:#353431;stroke-miterlimit:10;stroke-width:0.25px;}.cls-10{fill:#179334;}</style></defs><path class="cls-1" d="M40.61,6.44A1.47,1.47,0,0,0,40.5,7a1.5,1.5,0,0,0,3,0,1.47,1.47,0,0,0-.11-.56A1.49,1.49,0,1,0,42,3.89a1.49,1.49,0,1,0-1.39,2.55Z"/><path class="cls-2" d="M42,9a2,2,0,0,1-2-2,2.11,2.11,0,0,1,0-.26A2,2,0,0,1,41,3a2,2,0,0,1,1,.27A2,2,0,0,1,43,3a2,2,0,0,1,1,3.74A2.11,2.11,0,0,1,44,7,2,2,0,0,1,42,9ZM41,4a1,1,0,0,0-.26,2,.52.52,0,0,1,.32.26.49.49,0,0,1,0,.41A1,1,0,0,0,41,7a1,1,0,0,0,2,0,1,1,0,0,0-.07-.37.49.49,0,0,1,0-.41A.52.52,0,0,1,43.26,6,1,1,0,0,0,43,4a1,1,0,0,0-.66.26.52.52,0,0,1-.68,0A1,1,0,0,0,41,4Z"/><circle class="cls-3" cx="38.5" cy="6.5" r="2"/><path class="cls-2" d="M38.5,9A2.5,2.5,0,1,1,41,6.5,2.5,2.5,0,0,1,38.5,9Zm0-4A1.5,1.5,0,1,0,40,6.5,1.5,1.5,0,0,0,38.5,5Z"/><circle class="cls-1" cx="56.5" cy="12.5" r="2"/><path class="cls-2" d="M56.5,15A2.5,2.5,0,1,1,59,12.5,2.5,2.5,0,0,1,56.5,15Zm0-4A1.5,1.5,0,1,0,58,12.5,1.5,1.5,0,0,0,56.5,11Z"/><path class="cls-1" d="M49.5,7.5a2,2,0,0,0-2-2,2,2,0,0,0-1,.29,1.5,1.5,0,0,0-3,.21,1.52,1.52,0,0,0,.17.68A2,2,0,1,0,45.86,10,1.47,1.47,0,0,0,47,10.5a1.5,1.5,0,0,0,1.48-1.26A2,2,0,0,0,49.5,7.5Z"/><path class="cls-2" d="M47,11a2,2,0,0,1-1.17-.39A2.43,2.43,0,0,1,44.5,11a2.5,2.5,0,0,1-1.44-4.54A1.76,1.76,0,0,1,43,6a2,2,0,0,1,3.78-.89A2.57,2.57,0,0,1,47.5,5a2.5,2.5,0,0,1,1.42,4.55A2,2,0,0,1,47,11ZM45.86,9.46h0a.5.5,0,0,1,.35.18A1,1,0,0,0,48,9.16a.55.55,0,0,1,.25-.36A1.49,1.49,0,0,0,47.5,6a1.4,1.4,0,0,0-.76.22.54.54,0,0,1-.48,0A.51.51,0,0,1,46,5.86,1,1,0,0,0,44,6a1,1,0,0,0,.12.45.56.56,0,0,1,0,.4.55.55,0,0,1-.27.29A1.5,1.5,0,0,0,44.5,10a1.47,1.47,0,0,0,1-.41A.51.51,0,0,1,45.86,9.46Z"/><path class="cls-4" d="M45.5,9a.47.47,0,0,1-.35-.15.48.48,0,0,1,0-.7l1-1A.47.47,0,0,1,46.5,7h1a.5.5,0,0,1,0,1h-.79l-.86.85A.47.47,0,0,1,45.5,9Z"/><path class="cls-3" d="M34.51,9.41s0,.06,0,.09A2,2,0,1,0,38,8.14,1.47,1.47,0,0,0,38.5,7a1.5,1.5,0,0,0-2.94-.39A1.47,1.47,0,0,0,35,6.5,1.5,1.5,0,0,0,33.5,8,1.48,1.48,0,0,0,34.51,9.41Z"/><path class="cls-2" d="M36.5,12A2.51,2.51,0,0,1,34,9.73,2,2,0,0,1,33,8a2,2,0,0,1,2.26-2A2,2,0,0,1,39,7a2,2,0,0,1-.39,1.17A2.49,2.49,0,0,1,36.5,12ZM35,7a1,1,0,0,0-.33,1.94.5.5,0,0,1,.34.49s0,.07,0,.09a1.5,1.5,0,0,0,3,0,1.47,1.47,0,0,0-.41-1,.5.5,0,0,1,0-.72,1,1,0,1,0-1.6-1,.52.52,0,0,1-.26.32.49.49,0,0,1-.41,0A.94.94,0,0,0,35,7Z"/><path class="cls-1" d="M34,13.5a1.5,1.5,0,0,0,.39-2.94,1.48,1.48,0,0,0,0-1.12A1.5,1.5,0,0,0,34,6.5a1.47,1.47,0,0,0-.56.11,1.49,1.49,0,0,0-2.87,0A1.49,1.49,0,0,0,29.89,9a1.49,1.49,0,0,0,.72,2.44,1.47,1.47,0,0,0-.11.56A1.49,1.49,0,0,0,33,13.11,1.49,1.49,0,0,0,34,13.5Z"/><path class="cls-2" d="M34,14a2,2,0,0,1-1-.27A2,2,0,0,1,32,14a2,2,0,0,1-2-2,2.11,2.11,0,0,1,0-.26A2,2,0,0,1,29,10a2.05,2.05,0,0,1,.27-1A2.05,2.05,0,0,1,29,8a2,2,0,0,1,1.18-1.82A2,2,0,0,1,33.74,6,2,2,0,0,1,35,9.74a1.7,1.7,0,0,1,0,.52A2,2,0,0,1,34,14Zm-1-1.39a.5.5,0,0,1,.34.13A1,1,0,0,0,34,13a1,1,0,0,0,.26-2,.52.52,0,0,1-.32-.26.49.49,0,0,1,0-.41,1,1,0,0,0,0-.74.49.49,0,0,1,0-.41A.52.52,0,0,1,34.26,9,1,1,0,0,0,35,8a1,1,0,0,0-1.37-.93.49.49,0,0,1-.41,0A.52.52,0,0,1,33,6.74a1,1,0,0,0-1.91,0,.5.5,0,0,1-.34.34A1,1,0,0,0,30,8a1,1,0,0,0,.26.67.49.49,0,0,1,0,.66A1,1,0,0,0,30,10a1,1,0,0,0,.74,1,.52.52,0,0,1,.32.26.49.49,0,0,1,0,.41A1,1,0,0,0,31,12a1,1,0,0,0,1,1,1,1,0,0,0,.66-.26A.5.5,0,0,1,33,12.61Z"/><path class="cls-4" d="M32.5,11a.5.5,0,0,1-.45-.28l-1-2a.5.5,0,0,1,.9-.44l1,2a.51.51,0,0,1-.23.67A.54.54,0,0,1,32.5,11Z"/><path class="cls-5" d="M52,9.5a2.35,2.35,0,0,0-.71.12A2,2,0,1,0,49.5,12.5h0A2.5,2.5,0,1,0,52,9.5Z"/><path class="cls-2" d="M52,15a3,3,0,0,1-2.84-2,2.5,2.5,0,0,1,.34-5,2.47,2.47,0,0,1,2,1A2.74,2.74,0,0,1,52,9a3,3,0,0,1,0,6ZM49.5,9a1.5,1.5,0,0,0,0,3,.55.55,0,0,1,.54.4A2,2,0,1,0,52,10a2.15,2.15,0,0,0-.57.09.48.48,0,0,1-.59-.25A1.49,1.49,0,0,0,49.5,9Z"/><path class="cls-4" d="M51.5,12a.54.54,0,0,1-.22-.05l-2-1a.5.5,0,1,1,.44-.9l2,1a.5.5,0,0,1-.22.95Z"/><path class="cls-5" d="M33.39,12.56A1.47,1.47,0,0,0,33.5,12a1.5,1.5,0,0,0-3,0,1.47,1.47,0,0,0,.11.56A1.49,1.49,0,1,0,32,15.11a1.49,1.49,0,1,0,1.39-2.55Z"/><path class="cls-2" d="M33,16a2,2,0,0,1-1-.27A2,2,0,0,1,31,16a2,2,0,0,1-1-3.74A2.11,2.11,0,0,1,30,12a2,2,0,0,1,4,0,2.11,2.11,0,0,1,0,.26A2,2,0,0,1,33,16Zm-1-1.39a.5.5,0,0,1,.34.13A1,1,0,0,0,33,15a1,1,0,0,0,.26-2,.52.52,0,0,1-.32-.26.49.49,0,0,1,0-.41A1,1,0,0,0,33,12a1,1,0,0,0-2,0,1,1,0,0,0,.07.37.49.49,0,0,1,0,.41.52.52,0,0,1-.32.26A1,1,0,0,0,31,15a1,1,0,0,0,.66-.26A.5.5,0,0,1,32,14.61Z"/><path class="cls-4" d="M32.5,14h-1a.5.5,0,0,1,0-1h1a.5.5,0,0,1,0,1Z"/><path class="cls-1" d="M44.5,12a2.5,2.5,0,0,0-1-2h0A1.5,1.5,0,0,0,42,8.5,1.47,1.47,0,0,0,40.86,9,2,2,0,0,0,37.5,10.5a2.05,2.05,0,0,0,.34,1.12,2,2,0,1,0,2,3.34A1.47,1.47,0,0,0,41,15.5a1.49,1.49,0,0,0,1.42-1A2.49,2.49,0,0,0,44.5,12Z"/><path class="cls-2" d="M41,16a2,2,0,0,1-1.17-.39A2.43,2.43,0,0,1,38.5,16a2.5,2.5,0,0,1-1.33-4.61A2.43,2.43,0,0,1,37,10.5,2.5,2.5,0,0,1,39.5,8a2.43,2.43,0,0,1,1.33.39A2,2,0,0,1,42,8a2,2,0,0,1,2,1.76,3,3,0,0,1-1.21,5.13A2,2,0,0,1,41,16Zm-1.14-1.54h0a.5.5,0,0,1,.35.18A1,1,0,0,0,42,14.3a.5.5,0,0,1,.39-.34A2,2,0,0,0,44,12a2,2,0,0,0-.8-1.59A.48.48,0,0,1,43,10a1,1,0,0,0-1-1,1,1,0,0,0-.76.36.5.5,0,0,1-.72.05,1.47,1.47,0,0,0-1-.41,1.5,1.5,0,0,0-1.24,2.34.5.5,0,0,1-.25.75A1.5,1.5,0,0,0,38.5,15a1.47,1.47,0,0,0,1-.41A.51.51,0,0,1,39.86,14.46Z"/><path class="cls-4" d="M38.5,14a.5.5,0,0,1-.22-.95l1.92-1,.95-.94a.49.49,0,1,1,.7.7l-1,1a.45.45,0,0,1-.13.1l-2,1A.54.54,0,0,1,38.5,14Z"/><path class="cls-4" d="M41.5,14a.47.47,0,0,1-.35-.15l-1-1a.49.49,0,0,1,.7-.7l1,1a.48.48,0,0,1,0,.7A.47.47,0,0,1,41.5,14Z"/><path class="cls-5" d="M48.49,12.59s0-.06,0-.09A2,2,0,1,0,45,13.86,1.47,1.47,0,0,0,44.5,15a1.5,1.5,0,0,0,2.94.39,1.47,1.47,0,0,0,.56.11A1.5,1.5,0,0,0,49.5,14,1.48,1.48,0,0,0,48.49,12.59Z"/><path class="cls-2" d="M46,17a2,2,0,0,1-2-2,2,2,0,0,1,.39-1.17A2.5,2.5,0,1,1,49,12.27,2,2,0,0,1,50,14a2,2,0,0,1-2.26,2A2,2,0,0,1,46,17Zm.5-6A1.5,1.5,0,0,0,45,12.5a1.47,1.47,0,0,0,.41,1,.5.5,0,0,1,0,.72,1,1,0,1,0,1.6,1,.52.52,0,0,1,.26-.32.49.49,0,0,1,.41,0A1,1,0,0,0,49,14a1,1,0,0,0-.67-.94.5.5,0,0,1-.34-.49s0-.07,0-.09A1.49,1.49,0,0,0,46.5,11Z"/><path class="cls-1" d="M60.5,16a2.5,2.5,0,1,0-4.72,1.13,1.53,1.53,0,0,0-.28.87,1.5,1.5,0,0,0,2.92.46A2.49,2.49,0,0,0,60.5,16Z"/><path class="cls-2" d="M57,20a2,2,0,0,1-2-2,1.87,1.87,0,0,1,.22-.9A2.84,2.84,0,0,1,55,16a3,3,0,1,1,3.78,2.89A2,2,0,0,1,57,20Zm1-6a2,2,0,0,0-2,2,2,2,0,0,0,.23.9.51.51,0,0,1,0,.52A1,1,0,1,0,58,18.3a.5.5,0,0,1,.39-.34A2,2,0,0,0,58,14Z"/><path class="cls-3" d="M44.5,18a2.5,2.5,0,1,0-4.72,1.13,1.53,1.53,0,0,0-.28.87,1.5,1.5,0,0,0,2.92.46A2.49,2.49,0,0,0,44.5,18Z"/><path class="cls-2" d="M41,22a2,2,0,0,1-2-2,1.87,1.87,0,0,1,.22-.9A2.84,2.84,0,0,1,39,18a3,3,0,1,1,3.78,2.89A2,2,0,0,1,41,22Zm1-6a2,2,0,0,0-2,2,2,2,0,0,0,.23.9.51.51,0,0,1,0,.52A1,1,0,1,0,42,20.3a.5.5,0,0,1,.39-.34A2,2,0,0,0,42,16Z"/><path class="cls-1" d="M24.5,14a2.5,2.5,0,1,0,4.72-1.13A1.53,1.53,0,0,0,29.5,12a1.5,1.5,0,0,0-2.92-.46A2.49,2.49,0,0,0,24.5,14Z"/><path class="cls-2" d="M27,17a3,3,0,0,1-.78-5.89A2,2,0,0,1,28,10a2,2,0,0,1,2,2,1.87,1.87,0,0,1-.22.9A2.84,2.84,0,0,1,30,14,3,3,0,0,1,27,17Zm1-6a1,1,0,0,0-.95.7.5.5,0,0,1-.39.34,2,2,0,1,0,2.11,1.06.51.51,0,0,1,0-.52A1,1,0,0,0,28,11Z"/><path class="cls-5" d="M45,14.5a2.35,2.35,0,0,0-.71.12A2,2,0,1,0,42.5,17.5h0a2.5,2.5,0,1,0,2.45-3Z"/><path class="cls-2" d="M45,20a3,3,0,0,1-2.84-2,2.5,2.5,0,0,1,.34-5,2.47,2.47,0,0,1,2,1A2.74,2.74,0,0,1,45,14a3,3,0,0,1,0,6Zm-2.5-6a1.5,1.5,0,0,0,0,3,.55.55,0,0,1,.54.4A2,2,0,1,0,45,15a2.15,2.15,0,0,0-.57.09.48.48,0,0,1-.59-.25A1.49,1.49,0,0,0,42.5,14Z"/><path class="cls-4" d="M44.5,17a.54.54,0,0,1-.22-.05l-2-1a.5.5,0,0,1,.44-.9l2,1a.5.5,0,0,1-.22.95Z"/><path class="cls-1" d="M55.5,15a1.5,1.5,0,0,0-2.94-.39,1.48,1.48,0,0,0-1.12,0A1.5,1.5,0,0,0,48.5,15a1.47,1.47,0,0,0,.11.56,1.49,1.49,0,0,0,0,2.87,1.49,1.49,0,0,0,2.43.68,1.49,1.49,0,0,0,2.44-.72,1.47,1.47,0,0,0,.56.11A1.49,1.49,0,0,0,55.11,16,1.49,1.49,0,0,0,55.5,15Z"/><path class="cls-2" d="M52,20a2,2,0,0,1-1-.27A2,2,0,0,1,50,20a2,2,0,0,1-1.82-1.18A2,2,0,0,1,48,15.26,2.11,2.11,0,0,1,48,15a2,2,0,0,1,3.74-1,1.51,1.51,0,0,1,.52,0A2,2,0,0,1,56,15a2.05,2.05,0,0,1-.27,1A2.05,2.05,0,0,1,56,17a2,2,0,0,1-2.26,2A2,2,0,0,1,52,20Zm-1-1.39a.5.5,0,0,1,.34.13A1,1,0,0,0,53,18.26a.52.52,0,0,1,.26-.32.49.49,0,0,1,.41,0,1,1,0,0,0,1.11-1.6.49.49,0,0,1,0-.66A1,1,0,0,0,54,14a1,1,0,0,0-1,.74.52.52,0,0,1-.26.32.49.49,0,0,1-.41,0,1,1,0,0,0-.74,0,.49.49,0,0,1-.41,0,.52.52,0,0,1-.26-.32A1,1,0,0,0,49,15a1,1,0,0,0,.07.37.49.49,0,0,1,0,.41.52.52,0,0,1-.32.26,1,1,0,0,0,0,1.91.5.5,0,0,1,.34.34,1,1,0,0,0,1.61.45A.5.5,0,0,1,51,18.61Z"/><path class="cls-4" d="M50.5,18a.5.5,0,0,1-.22-.95l2-1a.5.5,0,0,1,.44.9l-2,1A.54.54,0,0,1,50.5,18Z"/><path class="cls-1" d="M33.5,18a1.5,1.5,0,0,0,2.94.39,1.48,1.48,0,0,0,1.12,0A1.5,1.5,0,0,0,40.5,18a1.47,1.47,0,0,0-.11-.56,1.49,1.49,0,0,0,0-2.87A1.49,1.49,0,0,0,38,13.89a1.49,1.49,0,0,0-2.44.72A1.47,1.47,0,0,0,35,14.5,1.49,1.49,0,0,0,33.89,17,1.49,1.49,0,0,0,33.5,18Z"/><path class="cls-2" d="M39,20a2,2,0,0,1-1.74-1,1.51,1.51,0,0,1-.52,0A2,2,0,0,1,33,18a2.05,2.05,0,0,1,.27-1A2.05,2.05,0,0,1,33,16a2,2,0,0,1,2.26-2A2.06,2.06,0,0,1,38,13.27,2,2,0,0,1,39,13a2,2,0,0,1,1.82,1.18A2,2,0,0,1,41,17.74,2.11,2.11,0,0,1,41,18,2,2,0,0,1,39,20Zm-1.44-2.11a.59.59,0,0,1,.22.05.52.52,0,0,1,.26.32A1,1,0,0,0,40,18a1,1,0,0,0-.07-.37.49.49,0,0,1,0-.41.52.52,0,0,1,.32-.26,1,1,0,0,0,0-1.91.49.49,0,0,1-.34-.34,1,1,0,0,0-1.61-.45.52.52,0,0,1-.68,0,1,1,0,0,0-1.62.48.52.52,0,0,1-.26.32.49.49,0,0,1-.41,0,1,1,0,0,0-1.11,1.6.49.49,0,0,1,0,.66A1,1,0,0,0,35,19a1,1,0,0,0,1-.74.52.52,0,0,1,.26-.32.49.49,0,0,1,.41,0,1,1,0,0,0,.74,0A.41.41,0,0,1,37.56,17.89Z"/><path class="cls-4" d="M36.5,17a.5.5,0,0,1-.22-.95l2-1a.5.5,0,1,1,.44.9l-2,1A.54.54,0,0,1,36.5,17Z"/><path class="cls-1" d="M26.25,15a2.24,2.24,0,0,0-2.06,1.35,1.5,1.5,0,1,0,0,1.8A2.25,2.25,0,1,0,26.25,15Z"/><path class="cls-2" d="M26.25,20a2.72,2.72,0,0,1-2.17-1.07,2,2,0,0,1-1.08.32,2,2,0,0,1,0-4,2,2,0,0,1,1.08.32A2.75,2.75,0,1,1,26.25,20Zm-2.06-2.35h.06a.49.49,0,0,1,.4.29,1.75,1.75,0,1,0,0-1.4.49.49,0,0,1-.4.29.48.48,0,0,1-.46-.19,1,1,0,1,0,0,1.2A.51.51,0,0,1,24.19,17.65Z"/><path class="cls-1" d="M34.5,17.5a2,2,0,0,0-2-2,2,2,0,0,0-1,.29,1.5,1.5,0,0,0-3,.21,1.52,1.52,0,0,0,.17.68A2,2,0,1,0,30.86,20,1.47,1.47,0,0,0,32,20.5a1.5,1.5,0,0,0,1.48-1.26A2,2,0,0,0,34.5,17.5Z"/><path class="cls-2" d="M32,21a2,2,0,0,1-1.17-.39A2.43,2.43,0,0,1,29.5,21a2.5,2.5,0,0,1-1.44-4.54A1.76,1.76,0,0,1,28,16a2,2,0,0,1,3.78-.89A2.57,2.57,0,0,1,32.5,15a2.5,2.5,0,0,1,1.42,4.55A2,2,0,0,1,32,21Zm-1.14-1.54h0a.5.5,0,0,1,.35.18A1,1,0,0,0,33,19.16a.55.55,0,0,1,.25-.36A1.49,1.49,0,0,0,32.5,16a1.4,1.4,0,0,0-.76.22.54.54,0,0,1-.48,0,.51.51,0,0,1-.28-.38A1,1,0,0,0,29,16a1,1,0,0,0,.12.45.56.56,0,0,1,0,.4.55.55,0,0,1-.27.29A1.5,1.5,0,0,0,29.5,20a1.47,1.47,0,0,0,1-.41A.51.51,0,0,1,30.86,19.46Z"/><path class="cls-4" d="M30.5,19a.47.47,0,0,1-.35-.15.48.48,0,0,1,0-.7l1-1A.47.47,0,0,1,31.5,17h1a.5.5,0,0,1,0,1h-.79l-.86.85A.47.47,0,0,1,30.5,19Z"/><polygon class="cls-1" points="37.3 63.5 30.9 63.5 28.5 23.5 36.5 23.5 37.3 63.5"/><polygon class="cls-1" points="50.1 63.5 43.7 63.5 44.5 23.5 52.5 23.5 50.1 63.5"/><path class="cls-6" d="M48.5,24.5H21.6l.1,1h0l3.7,37h.72L22.8,27.69a2,2,0,0,1,2-2.19H45.33a3,3,0,0,1,3,3.13L46.89,62.5H55.6l3.7-37,.1-1Z"/><polygon class="cls-7" points="56.5 63.5 50.1 63.5 52.5 23.5 60.5 23.5 56.5 63.5"/><polygon class="cls-8" points="30.9 63.5 24.5 63.5 20.5 23.5 28.5 23.5 30.9 63.5"/><polygon class="cls-8" points="43.7 63.5 37.3 63.5 36.5 23.5 44.5 23.5 43.7 63.5"/><rect class="cls-1" x="18.5" y="19.5" width="44" height="4" rx="2"/><path class="cls-2" d="M63.5,21.5a3,3,0,0,0-3-3h-40a3,3,0,0,0-.92,5.84L23.5,63.6a1,1,0,0,0,1,.9h32a1,1,0,0,0,1-.9l3.92-39.26A3,3,0,0,0,63.5,21.5Zm-7.9,41H25.4l-3.8-38H59.4Zm4.9-40h-40a1,1,0,0,1,0-2h40a1,1,0,0,1,0,2Z"/><circle class="cls-9" cx="40.5" cy="42.5" r="7"/><path class="cls-9" d="M40.5,50A7.5,7.5,0,1,1,48,42.5,7.5,7.5,0,0,1,40.5,50Zm0-14A6.5,6.5,0,1,0,47,42.5,6.51,6.51,0,0,0,40.5,36Z"/><polygon class="cls-8" points="50.16 62.5 55.59 62.5 59.3 25.5 59.4 24.5 52.44 24.5 50.16 62.5"/><polygon class="cls-8" points="44.48 24.5 36.52 24.5 36.54 25.5 44.46 25.5 44.48 24.5"/><path class="cls-8" d="M24.79,25.5h3.83l-.06-1h-7l.1,1,3.7,37h.72L22.8,27.69A2,2,0,0,1,24.79,25.5Z"/><polygon class="cls-8" points="57.5 24.5 54.5 62.5 55.59 62.5 59.4 24.5 57.5 24.5"/><path class="cls-6" d="M60.5,20.5h-12v1h-29a1,1,0,0,0,1,1h40a1,1,0,0,0,0-2Z"/><circle class="cls-1" cx="35.5" cy="12.5" r="2"/><path class="cls-2" d="M35.5,15A2.5,2.5,0,1,1,38,12.5,2.5,2.5,0,0,1,35.5,15Zm0-4A1.5,1.5,0,1,0,37,12.5,1.5,1.5,0,0,0,35.5,11Z"/><polygon class="cls-8" points="43.72 62.5 43.84 56.5 37.16 56.5 37.28 62.5 43.72 62.5"/><path class="cls-10" d="M37,44.78a1.92,1.92,0,0,1,1.31.53,1.61,1.61,0,0,0,1.14.49h2.64a.5.5,0,1,0,0-1h.69a.5.5,0,0,0,0-1h.5a.48.48,0,0,0,.49-.49.49.49,0,0,0-.49-.5H43a.5.5,0,0,0,.5-.5.49.49,0,0,0-.5-.49H41a.33.33,0,0,1-.32-.47l.35-.81A1.18,1.18,0,0,0,40.35,39h0l-.83,2a1.52,1.52,0,0,1-.28.43h0a1.22,1.22,0,0,1-.44.28,1.15,1.15,0,0,1-.5.1H37v3Z"/></svg>